<svg width="19" height="19" viewBox="0 0 19 19" fill="none" xmlns="http://www.w3.org/2000/svg">
<path d="M9.01562 6.76562V10.4219C9.01562 10.7969 9.20312 11.125 9.48438 11.3125L12.625 13.1406C12.9531 13.3281 13.4219 13.2344 13.6562 12.8594C13.8438 12.5312 13.75 12.0625 13.375 11.8281L10.5156 10.1406V6.71875C10.5156 6.34375 10.1406 6.01562 9.76562 6.01562C9.34375 6.01562 9.01562 6.34375 9.01562 6.76562ZM19 7.51562V2.21875C19 1.75 18.4375 1.5625 18.1562 1.84375L16.375 3.625C14.5469 1.84375 11.9688 0.8125 9.15625 1.04688C4.98438 1.42188 1.51562 4.79688 1.04688 8.96875C0.4375 14.4062 4.70312 19 10 19C14.5938 19 18.3906 15.5781 18.9531 11.125C19 10.5156 18.5312 10 17.9219 10C17.4531 10 17.0312 10.375 16.9375 10.8438C16.5156 14.3594 13.5156 17.0312 9.90625 16.9844C6.20312 16.9375 3.0625 13.7969 3.01562 10.0938C2.92188 6.20312 6.10938 3.01562 10 3.01562C11.9219 3.01562 13.7031 3.8125 14.9688 5.03125L12.8594 7.14062C12.5312 7.46875 12.7656 7.98438 13.1875 7.98438H18.4844C18.7656 7.98438 19 7.79688 19 7.51562Z" fill="#0D7680"/>
</svg>
