<svg width="60" height="52" viewBox="0 0 60 52" fill="none" xmlns="http://www.w3.org/2000/svg">
<mask id="mask0_44_530" style="mask-type:alpha" maskUnits="userSpaceOnUse" x="0" y="19" width="60" height="33">
<path d="M0 19.8672H59.9997V51.7472H0V19.8672Z" fill="white"/>
</mask>
<g mask="url(#mask0_44_530)">
<path fill-rule="evenodd" clip-rule="evenodd" d="M58.9995 51.7472H0.999512C0.447512 51.7472 -0.000488281 51.2992 -0.000488281 50.7472V20.8672C-0.000488281 20.3152 0.447512 19.8672 0.999512 19.8672H58.9995C59.5525 19.8672 59.9995 20.3152 59.9995 20.8672V50.7472C59.9995 51.2992 59.5525 51.7472 58.9995 51.7472Z" fill="#C2DDDF"/>
</g>
<path fill-rule="evenodd" clip-rule="evenodd" d="M52.9995 48.7471H7.99951C7.44751 48.7471 6.99951 48.2991 6.99951 47.7471C6.99951 47.1951 7.44751 46.7471 7.99951 46.7471H52.9995C53.5525 46.7471 53.9995 47.1951 53.9995 47.7471C53.9995 48.2991 53.5525 48.7471 52.9995 48.7471Z" fill="#0D7680"/>
<path fill-rule="evenodd" clip-rule="evenodd" d="M17.9995 44.7471H7.99951C7.44751 44.7471 6.99951 44.2991 6.99951 43.7471C6.99951 43.1951 7.44751 42.7471 7.99951 42.7471H17.9995C18.5525 42.7471 18.9995 43.1951 18.9995 43.7471C18.9995 44.2991 18.5525 44.7471 17.9995 44.7471Z" fill="#0D7680"/>
<path fill-rule="evenodd" clip-rule="evenodd" d="M26.9995 44.7471H20.9995C20.4475 44.7471 19.9995 44.2991 19.9995 43.7471C19.9995 43.1951 20.4475 42.7471 20.9995 42.7471H26.9995C27.5525 42.7471 27.9995 43.1951 27.9995 43.7471C27.9995 44.2991 27.5525 44.7471 26.9995 44.7471Z" fill="#0D7680"/>
<path fill-rule="evenodd" clip-rule="evenodd" d="M16.9995 40.7471H7.99951C7.44751 40.7471 6.99951 40.2991 6.99951 39.7471C6.99951 39.1951 7.44751 38.7471 7.99951 38.7471H16.9995C17.5525 38.7471 17.9995 39.1951 17.9995 39.7471C17.9995 40.2991 17.5525 40.7471 16.9995 40.7471Z" fill="#0D7680"/>
<path fill-rule="evenodd" clip-rule="evenodd" d="M37.9995 40.7471H19.9995C19.4475 40.7471 18.9995 40.2991 18.9995 39.7471C18.9995 39.1951 19.4475 38.7471 19.9995 38.7471H37.9995C38.5525 38.7471 38.9995 39.1951 38.9995 39.7471C38.9995 40.2991 38.5525 40.7471 37.9995 40.7471Z" fill="#0D7680"/>
<path fill-rule="evenodd" clip-rule="evenodd" d="M46.8242 32.9062C46.8242 34.0772 45.8472 35.0262 44.6472 35.0522H14.1682C12.9652 35.0262 11.9912 34.0772 11.9912 32.9062V16.4312H46.8242V32.9062Z" fill="#0D7680"/>
<path fill-rule="evenodd" clip-rule="evenodd" d="M46.8242 32.9062C46.8242 34.0772 45.8472 35.0262 44.6472 35.0522H14.1682C12.9652 35.0262 11.9912 34.0772 11.9912 32.9062V16.4312H46.8242V32.9062Z" stroke="#0D7680"/>
<path fill-rule="evenodd" clip-rule="evenodd" d="M46.395 9.57957L11.991 15.0286L11.006 8.81357C10.875 7.98857 11.269 6.63057 12.171 6.48757L43.584 1.51157C44.487 1.36957 45.28 2.53857 45.411 3.36557L46.395 9.57957Z" fill="#C2DDDF"/>
<path fill-rule="evenodd" clip-rule="evenodd" d="M46.395 9.57957L11.991 15.0286L11.006 8.81357C10.875 7.98857 11.269 6.63057 12.171 6.48757L43.584 1.51157C44.487 1.36957 45.28 2.53857 45.411 3.36557L46.395 9.57957Z" stroke="#C2DDDF"/>
<path d="M17.5669 14.1454L23.9629 4.61938" stroke="#0D7680" stroke-linecap="round"/>
<path d="M20.6743 13.6532L27.0703 4.1272" stroke="#0D7680" stroke-linecap="round"/>
<path d="M14.4585 14.6376L20.8545 5.11157" stroke="#0D7680" stroke-linecap="round"/>
<path d="M11.8818 14.3382L17.7458 5.60425" stroke="#0D7680" stroke-linecap="round"/>
<path d="M11.3511 10.9912L14.6371 6.09619" stroke="#0D7680" stroke-linecap="round"/>
<path d="M23.7827 13.1613L30.1787 3.63525" stroke="#0D7680" stroke-linecap="round"/>
<path d="M26.8911 12.6686L33.2871 3.14258" stroke="#0D7680" stroke-linecap="round"/>
<path d="M29.9995 12.1761L36.3955 2.65015" stroke="#0D7680" stroke-linecap="round"/>
<path d="M33.1079 11.684L39.5039 2.15796" stroke="#0D7680" stroke-linecap="round"/>
<path d="M36.2163 11.1918L42.6123 1.66577" stroke="#0D7680" stroke-linecap="round"/>
<path d="M39.3247 10.6992L44.9627 2.30322" stroke="#0D7680" stroke-linecap="round"/>
<path d="M42.4331 10.207L45.7191 5.31201" stroke="#0D7680" stroke-linecap="round"/>
<path fill-rule="evenodd" clip-rule="evenodd" d="M30.9907 25.0518C30.9907 26.1558 30.0947 27.0518 28.9907 27.0518C27.8867 27.0518 26.9907 26.1558 26.9907 25.0518C26.9907 23.9478 27.8867 23.0518 28.9907 23.0518C30.0947 23.0518 30.9907 23.9478 30.9907 25.0518Z" fill="#C2DDDF"/>
<path fill-rule="evenodd" clip-rule="evenodd" d="M36.9912 25.0518C36.9912 26.1558 36.0952 27.0518 34.9912 27.0518C33.8872 27.0518 32.9912 26.1558 32.9912 25.0518C32.9912 23.9478 33.8872 23.0518 34.9912 23.0518C36.0952 23.0518 36.9912 23.9478 36.9912 25.0518Z" fill="#C2DDDF"/>
<path fill-rule="evenodd" clip-rule="evenodd" d="M24.9907 25.0518C24.9907 26.1558 24.0947 27.0518 22.9907 27.0518C21.8867 27.0518 20.9907 26.1558 20.9907 25.0518C20.9907 23.9478 21.8867 23.0518 22.9907 23.0518C24.0947 23.0518 24.9907 23.9478 24.9907 25.0518Z" fill="#C2DDDF"/>
</svg>
